<?xml version="1.0" encoding="utf-8"?>
<!-- Generator: Adobe Illustrator 16.0.0, SVG Export Plug-In . SVG Version: 6.00 Build 0)  -->
<!DOCTYPE svg PUBLIC "-//W3C//DTD SVG 1.1//EN" "http://www.w3.org/Graphics/SVG/1.1/DTD/svg11.dtd">
<svg version="1.1" id="Ebene_1" xmlns="http://www.w3.org/2000/svg" xmlns:xlink="http://www.w3.org/1999/xlink" x="0px" y="0px"
	 width="750px" height="560px" viewBox="0 0 750 560" enable-background="new 0 0 750 560" xml:space="preserve">
<rect x="643.5" y="160.5" fill="none" stroke="#000000" stroke-miterlimit="10" width="79" height="35"/>
<rect x="643.5" y="70.5" fill="none" stroke="#000000" stroke-miterlimit="10" width="79" height="35"/>
<g>
	<g>
		
			<line fill="none" stroke="#000000" stroke-width="2" stroke-linecap="round" stroke-miterlimit="10" stroke-dasharray="2,4" x1="528.739" y1="129.5" x2="632.086" y2="88.795"/>
		<g>
			<polygon points="628.917,98.834 627.111,97.971 631.372,89.078 622.19,85.478 622.923,83.615 634.104,88.002 			"/>
		</g>
	</g>
</g>
<g>
	<g>
		
			<line fill="none" stroke="#000000" stroke-width="2" stroke-linecap="round" stroke-miterlimit="10" stroke-dasharray="2,4" x1="529.006" y1="115.5" x2="632.311" y2="45.22"/>
		<g>
			<polygon points="631.432,55.71 629.48,55.267 631.677,45.653 621.927,44.165 622.231,42.186 634.104,44.001 			"/>
		</g>
	</g>
</g>
<g>
	<g>
		
			<line fill="none" stroke="#000000" stroke-width="2" stroke-linecap="round" stroke-miterlimit="10" stroke-dasharray="2,4" x1="528" y1="143.707" x2="631.945" y2="133.218"/>
		<g>
			<polygon points="626.174,142.021 624.669,140.701 631.182,133.297 623.32,127.341 624.531,125.747 634.104,133.002 			"/>
		</g>
	</g>
</g>
<g>
	<g>
		
			<line fill="none" stroke="#000000" stroke-width="2" stroke-linecap="round" stroke-miterlimit="10" stroke-dasharray="2,4" x1="529.006" y1="157" x2="631.975" y2="177.085"/>
		<g>
			<polygon points="623.904,183.844 622.846,182.146 631.221,176.94 625.416,168.966 627.036,167.79 634.104,177.502 			"/>
		</g>
	</g>
</g>
<g>
	<g>
		
			<line fill="none" stroke="#000000" stroke-width="2" stroke-linecap="round" stroke-miterlimit="10" stroke-dasharray="2,4" x1="528.739" y1="171.5" x2="632.158" y2="222.54"/>
		<g>
			<polygon points="622.596,226.942 622.021,225.025 631.47,222.202 627.963,212.984 629.835,212.274 634.103,223.502 			"/>
		</g>
	</g>
</g>
<g>
	<rect x="449.5" y="26.5" fill="none" stroke="#000000" stroke-miterlimit="10" width="74" height="92"/>
	<line fill="none" stroke="#000000" stroke-miterlimit="10" x1="455" y1="53.5" x2="516" y2="53.5"/>
	<line fill="none" stroke="#000000" stroke-miterlimit="10" x1="455" y1="55.5" x2="516" y2="55.5"/>
	<line fill="none" stroke="#000000" stroke-miterlimit="10" x1="455" y1="57.5" x2="516" y2="57.5"/>
	<line fill="none" stroke="#000000" stroke-miterlimit="10" x1="455" y1="59.5" x2="516" y2="59.5"/>
	<line fill="none" stroke="#000000" stroke-width="2" stroke-miterlimit="10" x1="455" y1="34" x2="516" y2="34"/>
	<line fill="none" stroke="#000000" stroke-width="2" stroke-miterlimit="10" x1="455" y1="37" x2="516" y2="37"/>
	<line fill="none" stroke="#000000" stroke-width="2" stroke-miterlimit="10" x1="455" y1="40" x2="516" y2="40"/>
	<line fill="none" stroke="#000000" stroke-width="2" stroke-miterlimit="10" x1="455" y1="43" x2="516" y2="43"/>
	<line fill="none" stroke="#000000" stroke-miterlimit="10" x1="455" y1="63.5" x2="516" y2="63.5"/>
	<line fill="none" stroke="#000000" stroke-miterlimit="10" x1="455" y1="65.5" x2="516" y2="65.5"/>
	<line fill="none" stroke="#000000" stroke-miterlimit="10" x1="455" y1="67.5" x2="516" y2="67.5"/>
	<line fill="none" stroke="#000000" stroke-miterlimit="10" x1="455" y1="69.5" x2="516" y2="69.5"/>
	<line fill="none" stroke="#000000" stroke-miterlimit="10" x1="455" y1="73.5" x2="516" y2="73.5"/>
	<line fill="none" stroke="#000000" stroke-miterlimit="10" x1="455" y1="75.5" x2="516" y2="75.5"/>
	<line fill="none" stroke="#000000" stroke-miterlimit="10" x1="455" y1="77.5" x2="516" y2="77.5"/>
	<line fill="none" stroke="#000000" stroke-miterlimit="10" x1="455" y1="79.5" x2="516" y2="79.5"/>
	<line fill="none" stroke="#000000" stroke-miterlimit="10" x1="455" y1="105.5" x2="516" y2="105.5"/>
	<line fill="none" stroke="#000000" stroke-miterlimit="10" x1="455" y1="107.5" x2="516" y2="107.5"/>
	<line fill="none" stroke="#000000" stroke-miterlimit="10" x1="455" y1="109.5" x2="516" y2="109.5"/>
	<line fill="none" stroke="#000000" stroke-miterlimit="10" x1="455" y1="111.5" x2="516" y2="111.5"/>
	<rect x="454.5" y="84.5" fill="none" stroke="#000000" stroke-miterlimit="10" width="29" height="16"/>
	<rect x="486.5" y="84.5" fill="none" stroke="#000000" stroke-miterlimit="10" width="29" height="16"/>
</g>
<g>
	<g>
		
			<line fill="none" stroke="#000000" stroke-width="2" stroke-linecap="round" stroke-miterlimit="10" stroke-dasharray="2,4" x1="120" y1="111.5" x2="215.2" y2="59.539"/>
		<g>
			<polygon points="213.302,69.894 211.402,69.262 214.527,59.909 204.969,57.475 205.465,55.536 217.104,58.502 			"/>
		</g>
	</g>
</g>
<g>
	<g>
		
			<line fill="none" stroke="#000000" stroke-width="2" stroke-linecap="round" stroke-miterlimit="10" stroke-dasharray="2,4" x1="120" y1="129.5" x2="215.003" y2="105.041"/>
		<g>
			<polygon points="210.625,114.614 208.938,113.536 214.26,105.234 205.59,100.532 206.546,98.773 217.104,104.502 			"/>
		</g>
	</g>
</g>
<g>
	<g>
		
			<line fill="none" stroke="#000000" stroke-width="2" stroke-linecap="round" stroke-miterlimit="10" stroke-dasharray="2,4" x1="120" y1="148.673" x2="214.952" y2="160.727"/>
		<g>
			<polygon points="207.348,168.007 206.179,166.382 214.19,160.632 207.87,153.061 209.408,151.78 217.104,161.002 			"/>
		</g>
	</g>
</g>
<g>
	<g>
		
			<line fill="none" stroke="#000000" stroke-width="2" stroke-linecap="round" stroke-miterlimit="10" stroke-dasharray="2,4" x1="120.744" y1="171.5" x2="215.183" y2="220.993"/>
		<g>
			<polygon points="205.516,225.162 204.987,223.231 214.501,220.639 211.22,211.338 213.109,210.674 217.103,222.002 			"/>
		</g>
	</g>
</g>
<g>
	<path d="M28.331,284.073h4.16l1.289,0.351l0.924,1.008l0.294,1.346l-0.28,1.105l-0.448,0.645l-0.42,0.225l0.42,0.266l0.602,0.869
		l0.308,1.358l-0.322,1.358l-0.729,0.883l-1.163,0.547h-4.637V284.073z M29.493,285.223v2.941h3.25l0.7-0.477l0.196-0.28
		c0.056-0.238,0.098-0.337,0.168-0.63c-0.056-0.281-0.084-0.435-0.168-0.785c-0.154-0.168-0.266-0.309-0.49-0.546l-0.771-0.224
		H29.493z M33.359,292.576c0.154-0.182,0.238-0.252,0.42-0.49l0.21-0.841l-0.21-0.896c-0.126-0.183-0.196-0.336-0.35-0.589
		l-0.743-0.447h-3.194v3.572h3.18L33.359,292.576z"/>
	<path d="M39.489,294.145l-1.415-0.672l-0.701-1.037l-0.28-1.26v-1.653l0.28-1.261l0.701-1.037l1.415-0.686h1.485l1.415,0.686
		l0.7,1.037l0.28,1.261v1.653l-0.28,1.26l-0.7,1.037l-1.415,0.672H39.489z M40.778,293.01l0.827-0.406l0.42-0.63l0.182-0.938v-1.4
		l-0.182-0.911l-0.435-0.616l-0.812-0.42h-1.092l-0.84,0.42l-0.406,0.616l-0.182,0.911v1.4l0.182,0.938l0.42,0.63l0.827,0.406
		H40.778z"/>
	<path d="M47.777,294.145l-1.415-0.672l-0.701-1.037l-0.28-1.26v-1.653l0.28-1.261l0.701-1.037l1.415-0.686h1.485l1.415,0.686
		l0.7,1.037l0.28,1.261v1.653l-0.28,1.26l-0.7,1.037l-1.415,0.672H47.777z M49.066,293.01l0.827-0.406l0.42-0.63l0.182-0.938v-1.4
		l-0.182-0.911l-0.435-0.616l-0.812-0.42h-1.092l-0.84,0.42l-0.406,0.616l-0.182,0.911v1.4l0.182,0.938l0.42,0.63l0.827,0.406
		H49.066z"/>
	<path d="M58.376,286.65h1.625l-3.025,2.956l3.166,4.427h-1.415l-2.549-3.629l-0.925,0.896v2.732H54.09v-10.562h1.163v6.304
		L58.376,286.65z"/>
	<path d="M62.799,289.34l0.392,0.196l2.143,0.421l0.799,0.531l0.546,0.896v1.191l-0.532,0.812l-0.672,0.477l-0.952,0.279h-1.247
		l-1.19-0.309l-0.658-0.518l-0.322-0.364l0.812-0.784l0.266,0.322l0.378,0.294l0.869,0.224h0.938l0.588-0.168l0.35-0.252l0.224-0.35
		v-0.533l-0.238-0.406l-0.42-0.293l-2.017-0.406l-0.896-0.477l-0.588-0.812v-1.247l0.462-0.798l0.63-0.49l0.869-0.238h1.191
		l1.148,0.308l0.84,0.575l-0.63,0.938l-0.672-0.462l-0.784-0.238h-0.938l-0.533,0.154l-0.238,0.196l-0.196,0.336v0.616
		L62.799,289.34z"/>
	<path d="M235.051,294.145l-1.499-0.658l-0.938-0.953l-0.617-1.246l-0.266-1.205v-2.059l0.266-1.232l0.617-1.247l0.966-0.938
		l1.471-0.645h1.541l1.457,0.574l0.63,0.49l0.546,0.645l-0.827,0.785l-0.49-0.547l-0.434-0.35l-1.05-0.449h-1.177l-0.995,0.449
		l-0.672,0.672l-0.476,0.938l-0.21,0.938v1.877l0.21,0.938l0.476,0.925l0.658,0.672l1.009,0.477h1.177l1.064-0.448l0.434-0.351
		l0.476-0.546l0.827,0.784l-0.546,0.645l-0.63,0.49l-1.457,0.574H235.051z"/>
	<path d="M241.279,283.471h1.163v3.881l0.336-0.281l0.938-0.531h1.289l1.177,0.336l0.854,1.148v6.01h-1.163v-5.562l-0.35-0.546
		l-0.757-0.238h-0.896l-0.98,0.645l-0.448,0.658v5.043h-1.163V283.471z"/>
	<path d="M249.595,287.604l0.392-0.364l0.672-0.435l0.896-0.266h1.303l1.009,0.252l1.037,0.7l0.378,0.952v4.244l0.546,0.785
		l-0.938,0.672l-0.672-1.008l-0.322,0.363l-1.289,0.645h-0.869l-0.952-0.294l-0.672-0.392l-0.785-1.135v-0.812l0.196-0.953
		l1.037-1.036l1.387-0.351h0.896l0.938,0.309l0.336,0.238v-1.064l-0.154-0.421l-0.588-0.378l-0.687-0.168h-0.995l-0.602,0.195
		l-0.435,0.281l-0.266,0.266L249.595,287.604z M253.979,292.002l0.14-0.435v-0.519l-0.294-0.309l-0.435-0.224l-0.686-0.196h-0.63
		l-0.925,0.252l-0.546,0.547l-0.112,0.49v0.379l0.434,0.615l0.322,0.197l0.659,0.195h0.448l1.05-0.393L253.979,292.002z"/>
	<path d="M259.648,287.07l0.868-0.531h1.261l1.457,0.672l0.952,1.289l0.294,0.994v1.667l-0.294,1.022l-0.952,1.289l-1.401,0.672
		h-1.247l-0.84-0.309l-0.393-0.252v2.718h-1.163v-9.651h1.149v0.742L259.648,287.07z M259.648,292.479l0.532,0.35l0.574,0.182h0.896
		l0.827-0.447l0.672-0.896l0.168-0.658v-1.359l-0.168-0.631l-0.672-0.91l-0.883-0.42h-0.924l-0.911,0.645l-0.406,0.602v3.18
		L259.648,292.479z"/>
	<path d="M268.733,286.833h1.933v1.148h-1.933v4.314l0.35,0.505l0.504,0.195h0.392l0.995-0.252l0.294,1.106l-1.303,0.294h-0.645
		l-0.98-0.363l-0.771-1.107v-4.692h-1.331v-1.148h1.331v-2.577h1.163V286.833z"/>
	<path d="M273.843,291.049l0.182,0.617l0.672,0.91l0.854,0.42h0.84l0.953-0.238l0.728-0.462l0.617,0.925l-0.911,0.602l-1.289,0.322
		h-1.163l-1.4-0.672l-0.953-1.289l-0.294-0.994v-1.667l0.294-1.022l0.953-1.289l1.4-0.672h1.247l1.415,0.672l0.938,1.289
		l0.322,0.938v1.472h-5.407V291.049z M278.087,289.76v-0.182l-0.182-0.532l-0.672-0.91l-0.854-0.448h-0.869l-0.84,0.434
		l-0.658,0.896l-0.168,0.617v0.125H278.087z"/>
	<path d="M284.89,287.688h-0.602l-0.771,0.363l-0.574,0.645l-0.309,0.673v4.665h-1.163v-7.383h1.163v0.855l0.533-0.52l0.952-0.447
		h0.911l0.7,0.195l-0.28,1.107L284.89,287.688z"/>
	<path d="M288.32,289.34l0.392,0.196l2.143,0.421l0.799,0.531l0.546,0.896v1.191l-0.532,0.812l-0.672,0.477l-0.953,0.279h-1.247
		l-1.19-0.309l-0.658-0.518l-0.322-0.364l0.812-0.784l0.266,0.322l0.378,0.294l0.869,0.224h0.938l0.588-0.168l0.35-0.252l0.224-0.35
		v-0.533l-0.238-0.406l-0.42-0.293l-2.017-0.406l-0.896-0.477l-0.588-0.812v-1.247l0.462-0.798l0.63-0.49l0.869-0.238h1.19
		l1.149,0.308l0.84,0.575l-0.63,0.938l-0.672-0.462l-0.784-0.238h-0.938l-0.532,0.154l-0.238,0.196l-0.196,0.336v0.616
		L288.32,289.34z"/>
	<path d="M442.933,294.145l-1.499-0.658l-0.938-0.953l-0.616-1.246l-0.266-1.205v-2.059l0.266-1.232l0.616-1.247l0.967-0.938
		l1.471-0.645h1.541l1.457,0.574l0.63,0.49l0.547,0.645l-0.827,0.785l-0.49-0.547l-0.434-0.35l-1.051-0.449h-1.177l-0.995,0.449
		l-0.672,0.672l-0.477,0.938l-0.21,0.938v1.877l0.21,0.938l0.477,0.925l0.658,0.672l1.009,0.477h1.177l1.064-0.448l0.435-0.351
		l0.476-0.546l0.827,0.784l-0.547,0.645l-0.63,0.49l-1.457,0.574H442.933z"/>
	<path d="M451.137,294.145l-1.415-0.672l-0.7-1.037l-0.28-1.26v-1.653l0.28-1.261l0.7-1.037l1.415-0.686h1.485l1.414,0.686
		l0.7,1.037l0.28,1.261v1.653l-0.28,1.26l-0.7,1.037l-1.414,0.672H451.137z M452.426,293.01l0.826-0.406l0.42-0.63l0.183-0.938v-1.4
		l-0.183-0.911l-0.434-0.616l-0.812-0.42h-1.093l-0.841,0.42l-0.406,0.616l-0.182,0.911v1.4l0.182,0.938l0.421,0.63l0.826,0.406
		H452.426z"/>
	<path d="M458.472,287.379l0.35-0.309l0.925-0.531h1.289l1.246,0.336l0.854,1.148v6.01h-1.162v-5.562l-0.351-0.546l-0.826-0.238
		h-0.896l-1.009,0.645l-0.42,0.602v5.1h-1.163v-7.383h1.163V287.379z"/>
	<path d="M467.712,286.833h1.934v1.148h-1.934v4.314l0.351,0.505l0.504,0.195h0.393l0.994-0.252l0.294,1.106l-1.303,0.294H468.3
		l-0.98-0.363l-0.77-1.107v-4.692h-1.331v-1.148h1.331v-2.577h1.162V286.833z"/>
	<path d="M475.54,287.688h-0.603l-0.771,0.363l-0.574,0.645l-0.308,0.673v4.665h-1.163v-7.383h1.163v0.855l0.532-0.52l0.952-0.447
		h0.91l0.701,0.195l-0.28,1.107L475.54,287.688z"/>
	<path d="M477.86,283.471h1.667v1.723h-1.667V283.471z M478.113,286.65h1.162v7.383h-1.162V286.65z"/>
	<path d="M483.854,287.07l0.854-0.531h1.262l1.455,0.672l0.953,1.289l0.295,0.994v1.667l-0.295,1.022l-0.953,1.289l-1.4,0.672
		h-1.246l-0.84-0.309l-0.393-0.252v0.449h-1.162v-10.562h1.162v3.922L483.854,287.07z M483.838,292.479l0.533,0.35l0.574,0.182
		h0.896l0.826-0.447l0.672-0.896l0.168-0.658v-1.359l-0.168-0.631l-0.672-0.91l-0.883-0.42h-0.924l-0.91,0.645l-0.406,0.602v3.18
		L483.838,292.479z"/>
	<path d="M493.947,293.01l0.996-0.658l0.434-0.602v-5.1h1.162v7.383h-1.148v-0.742l-0.363,0.321l-0.926,0.532h-1.135l-1.273-0.336
		l-0.912-1.177v-5.981h1.164v5.562l0.406,0.589l0.799,0.209H493.947z"/>
	<path d="M501.186,286.833h1.934v1.148h-1.934v4.314l0.35,0.505l0.504,0.195h0.393l0.994-0.252l0.295,1.106l-1.303,0.294h-0.645
		l-0.98-0.363l-0.77-1.107v-4.692h-1.332v-1.148h1.332v-2.577h1.162V286.833z"/>
	<path d="M505.691,283.471h1.666v1.723h-1.666V283.471z M505.943,286.65h1.162v7.383h-1.162V286.65z"/>
	<path d="M512.188,294.145l-1.414-0.672l-0.701-1.037l-0.279-1.26v-1.653l0.279-1.261l0.701-1.037l1.414-0.686h1.486l1.414,0.686
		l0.699,1.037l0.281,1.261v1.653l-0.281,1.26l-0.699,1.037l-1.414,0.672H512.188z M513.477,293.01l0.826-0.406l0.42-0.63
		l0.184-0.938v-1.4l-0.184-0.911l-0.434-0.616l-0.812-0.42h-1.092l-0.842,0.42l-0.406,0.616l-0.182,0.911v1.4l0.182,0.938
		l0.422,0.63l0.826,0.406H513.477z"/>
	<path d="M519.523,287.379l0.35-0.309l0.926-0.531h1.289l1.246,0.336l0.854,1.148v6.01h-1.162v-5.562l-0.35-0.546l-0.826-0.238
		h-0.896l-1.01,0.645l-0.42,0.602v5.1h-1.162v-7.383h1.162V287.379z"/>
	<path d="M527.965,289.34l0.393,0.196l2.143,0.421l0.799,0.531l0.547,0.896v1.191l-0.533,0.812l-0.672,0.477l-0.953,0.279h-1.246
		l-1.191-0.309l-0.658-0.518l-0.322-0.364l0.812-0.784l0.266,0.322l0.379,0.294l0.869,0.224h0.938l0.588-0.168l0.352-0.252
		l0.225-0.35v-0.533l-0.238-0.406l-0.422-0.293l-2.016-0.406l-0.896-0.477l-0.59-0.812v-1.247l0.463-0.798l0.631-0.49l0.869-0.238
		h1.189l1.148,0.308l0.842,0.575l-0.631,0.938l-0.672-0.462l-0.785-0.238h-0.939l-0.531,0.154l-0.238,0.196l-0.195,0.336v0.616
		L527.965,289.34z"/>
	<path d="M646.949,294.033h-1.162v-8.811h-2.646v-1.149h6.512v1.149h-2.703V294.033z"/>
	<path d="M651.43,291.049l0.182,0.617l0.672,0.91l0.855,0.42h0.84l0.953-0.238l0.729-0.462l0.615,0.925l-0.91,0.602l-1.289,0.322
		h-1.162l-1.4-0.672l-0.953-1.289l-0.295-0.994v-1.667l0.295-1.022l0.953-1.289l1.4-0.672h1.246l1.416,0.672l0.938,1.289
		l0.322,0.938v1.472h-5.406V291.049z M655.674,289.76v-0.182l-0.182-0.532l-0.674-0.91l-0.854-0.448h-0.869l-0.84,0.434
		l-0.658,0.896l-0.168,0.617v0.125H655.674z"/>
	<path d="M663.611,288.527l-0.352-0.574l-0.713-0.266h-0.896l-1.01,0.645l-0.42,0.602v5.1h-1.162v-7.383h1.162v0.729l0.35-0.309
		l0.926-0.531h1.289l1.133,0.336l0.533,0.729l0.617-0.533l0.98-0.531h1.287l1.135,0.336l0.855,1.148v6.01h-1.162v-5.562
		l-0.352-0.546l-0.713-0.238h-0.896l-0.982,0.645l-0.447,0.658v5.043h-1.162V288.527z"/>
	<path d="M673.422,287.07l0.869-0.531h1.262l1.455,0.672l0.953,1.289l0.295,0.994v1.667l-0.295,1.022l-0.953,1.289l-1.4,0.672
		h-1.246l-0.84-0.309l-0.393-0.252v2.718h-1.162v-9.651h1.148v0.742L673.422,287.07z M673.422,292.479l0.533,0.35l0.574,0.182h0.896
		l0.826-0.447l0.672-0.896l0.168-0.658v-1.359l-0.168-0.631l-0.672-0.91l-0.883-0.42h-0.924l-0.91,0.645l-0.406,0.602v3.18
		L673.422,292.479z"/>
	<path d="M680.576,294.033v-10.562h1.162v10.562H680.576z"/>
	<path d="M684.512,287.604l0.391-0.364l0.674-0.435l0.896-0.266h1.303l1.008,0.252l1.037,0.7l0.377,0.952v4.244l0.547,0.785
		l-0.938,0.672l-0.674-1.008l-0.322,0.363l-1.289,0.645h-0.867l-0.953-0.294l-0.672-0.392l-0.785-1.135v-0.812l0.197-0.953
		l1.035-1.036l1.387-0.351h0.896l0.939,0.309l0.336,0.238v-1.064l-0.154-0.421l-0.588-0.378l-0.686-0.168h-0.996l-0.602,0.195
		l-0.434,0.281l-0.268,0.266L684.512,287.604z M688.895,292.002l0.141-0.435v-0.519l-0.295-0.309l-0.434-0.224l-0.686-0.196h-0.631
		l-0.924,0.252l-0.547,0.547l-0.111,0.49v0.379l0.434,0.615l0.322,0.197l0.658,0.195h0.447l1.051-0.393L688.895,292.002z"/>
	<path d="M695.039,286.833h1.934v1.148h-1.934v4.314l0.352,0.505l0.504,0.195h0.393l0.994-0.252l0.293,1.106l-1.303,0.294h-0.643
		l-0.982-0.363l-0.77-1.107v-4.692h-1.33v-1.148h1.33v-2.577h1.162V286.833z"/>
	<path d="M700.148,291.049l0.182,0.617l0.674,0.91l0.854,0.42h0.84l0.953-0.238l0.729-0.462l0.617,0.925l-0.912,0.602l-1.287,0.322
		h-1.164l-1.4-0.672l-0.951-1.289l-0.295-0.994v-1.667l0.295-1.022l0.951-1.289l1.4-0.672h1.248l1.414,0.672l0.939,1.289
		l0.322,0.938v1.472h-5.408V291.049z M704.393,289.76v-0.182l-0.182-0.532l-0.672-0.91l-0.855-0.448h-0.867l-0.842,0.434
		l-0.658,0.896l-0.168,0.617v0.125H704.393z"/>
	<path d="M709.053,289.34l0.393,0.196l2.143,0.421l0.799,0.531l0.547,0.896v1.191l-0.533,0.812l-0.672,0.477l-0.953,0.279h-1.246
		l-1.191-0.309l-0.658-0.518l-0.322-0.364l0.812-0.784l0.266,0.322l0.379,0.294l0.869,0.224h0.938l0.588-0.168l0.352-0.252
		l0.225-0.35v-0.533l-0.238-0.406l-0.422-0.293l-2.016-0.406l-0.896-0.477l-0.59-0.812v-1.247l0.463-0.798l0.631-0.49l0.869-0.238
		h1.189l1.148,0.308l0.842,0.575l-0.631,0.938l-0.672-0.462l-0.785-0.238h-0.939l-0.531,0.154l-0.238,0.196l-0.195,0.336v0.616
		L709.053,289.34z"/>
</g>
<g>
	<path d="M196.479,523h-1.163v-9.96h1.163V523z"/>
	<path d="M200.511,518.307l0.392,0.196l2.143,0.421l0.799,0.531l0.546,0.896v1.191l-0.532,0.812l-0.672,0.477l-0.953,0.279h-1.247
		l-1.19-0.309l-0.658-0.518l-0.322-0.364l0.812-0.784l0.266,0.322l0.378,0.294l0.869,0.224h0.938l0.588-0.168l0.35-0.252l0.224-0.35
		v-0.533l-0.238-0.406l-0.42-0.293l-2.017-0.406l-0.896-0.477l-0.588-0.812v-1.247l0.462-0.798l0.63-0.49l0.869-0.238h1.19
		l1.149,0.308l0.84,0.575l-0.63,0.938l-0.672-0.462l-0.784-0.238h-0.938l-0.532,0.154l-0.238,0.196l-0.196,0.336v0.616
		L200.511,518.307z"/>
	<path d="M207.861,518.307l0.392,0.196l2.143,0.421l0.799,0.531l0.546,0.896v1.191l-0.532,0.812l-0.672,0.477l-0.952,0.279h-1.247
		l-1.19-0.309l-0.658-0.518l-0.322-0.364l0.812-0.784l0.266,0.322l0.378,0.294l0.869,0.224h0.938l0.588-0.168l0.35-0.252l0.224-0.35
		v-0.533l-0.238-0.406l-0.42-0.293l-2.017-0.406l-0.896-0.477l-0.588-0.812v-1.247l0.462-0.798l0.63-0.49l0.869-0.238h1.191
		l1.148,0.308l0.84,0.575l-0.63,0.938l-0.672-0.462l-0.784-0.238h-0.938l-0.533,0.154l-0.238,0.196l-0.196,0.336v0.616
		L207.861,518.307z"/>
	<path d="M217.032,521.977l0.995-0.658l0.434-0.602v-5.1h1.163V523h-1.149v-0.742l-0.364,0.321l-0.924,0.532h-1.135l-1.274-0.336
		l-0.911-1.177v-5.981h1.163v5.562l0.406,0.589l0.798,0.209H217.032z"/>
	<path d="M223.037,520.016l0.182,0.617l0.672,0.91l0.854,0.42h0.841l0.952-0.238l0.729-0.462l0.616,0.925l-0.91,0.602l-1.289,0.322
		h-1.163l-1.401-0.672l-0.953-1.289l-0.294-0.994v-1.667l0.294-1.022l0.953-1.289l1.401-0.672h1.247l1.415,0.672l0.938,1.289
		l0.322,0.938v1.472h-5.407V520.016z M227.281,518.727v-0.182l-0.182-0.532l-0.672-0.91l-0.854-0.448h-0.869l-0.84,0.434
		l-0.658,0.896l-0.168,0.617v0.125H227.281z"/>
	<path d="M231.941,518.307l0.392,0.196l2.143,0.421l0.799,0.531l0.546,0.896v1.191l-0.532,0.812l-0.672,0.477l-0.953,0.279h-1.247
		l-1.19-0.309l-0.658-0.518l-0.322-0.364l0.812-0.784l0.266,0.322l0.378,0.294l0.869,0.224h0.938l0.588-0.168l0.35-0.252l0.224-0.35
		v-0.533l-0.238-0.406l-0.42-0.293l-2.017-0.406l-0.896-0.477l-0.588-0.812v-1.247l0.462-0.798l0.63-0.49l0.869-0.238h1.19
		l1.149,0.308l0.84,0.575l-0.63,0.938l-0.672-0.462l-0.784-0.238h-0.938l-0.532,0.154l-0.238,0.196l-0.196,0.336v0.616
		L231.941,518.307z"/>
</g>
<g>
	<g>
		<polyline fill="none" stroke="#000000" stroke-width="2" stroke-miterlimit="10" points="35,73 108,73 108,196 113,196 113,67 
			46,67 		"/>
		<path fill="none" stroke="#000000" stroke-width="2" stroke-miterlimit="10" d="M35,73"/>
		<polyline fill="none" stroke="#000000" stroke-width="2" stroke-miterlimit="10" points="35,78 103,78 103,202 108,202 108,195 
			108,73 		"/>
		<polyline fill="none" stroke="#000000" stroke-width="2" stroke-miterlimit="10" points="30,83 98,83 98,207 103,207 103,201 
			103,78 35.116,78 30,78 		"/>
		<polygon fill="none" stroke="#000000" stroke-width="2" stroke-miterlimit="10" points="98,83 30.116,83 27,83 27,212 98,212 
			98,206 		"/>
	</g>
	<path fill="none" stroke="#000000" stroke-width="2" stroke-miterlimit="10" d="M27,83c0-5.833,12.833-16,19-16"/>
</g>
<g>
	<polygon fill="none" stroke="#000000" stroke-miterlimit="10" points="238.763,59.5 233.5,64.5 297.5,64.5 317.5,45.5 
		312.237,45.5 297.5,59.5 	"/>
	<polygon fill="none" stroke="#000000" stroke-miterlimit="10" points="297.5,54.5 238.763,54.5 233.5,59.5 238.763,59.5 
		297.5,59.5 312.237,45.5 317.5,40.5 312.237,40.5 	"/>
	<polygon fill="none" stroke="#000000" stroke-miterlimit="10" points="297.5,49.5 238.763,49.5 233.5,54.5 238.763,54.5 
		297.5,54.5 312.237,40.5 317.5,35.5 312.237,35.5 	"/>
	<polygon fill="none" stroke="#000000" stroke-miterlimit="10" points="312.237,30.5 297.5,44.5 238.763,44.5 233.5,49.5 
		238.763,49.5 297.5,49.5 312.237,35.5 317.5,30.5 	"/>
	<polygon fill="none" stroke="#000000" stroke-miterlimit="10" points="297.5,44.5 312.237,30.5 317.5,25.5 253.5,25.5 233.5,44.5 
		238.763,44.5 	"/>
</g>
<g>
	<polygon fill="none" stroke="#000000" stroke-miterlimit="10" points="238.763,108.5 233.5,113.5 297.5,113.5 317.5,94.5 
		312.237,94.5 297.5,108.5 	"/>
	<polygon fill="none" stroke="#000000" stroke-miterlimit="10" points="297.5,103.5 238.763,103.5 233.5,108.5 238.763,108.5 
		297.5,108.5 312.237,94.5 317.5,89.5 312.237,89.5 	"/>
	<polygon fill="none" stroke="#000000" stroke-miterlimit="10" points="297.5,98.5 238.763,98.5 233.5,103.5 238.763,103.5 
		297.5,103.5 312.237,89.5 317.5,84.5 312.237,84.5 	"/>
	<polygon fill="none" stroke="#000000" stroke-miterlimit="10" points="312.237,79.5 297.5,93.5 238.763,93.5 233.5,98.5 
		238.763,98.5 297.5,98.5 312.237,84.5 317.5,79.5 	"/>
	<polygon fill="none" stroke="#000000" stroke-miterlimit="10" points="297.5,93.5 312.237,79.5 317.5,74.5 253.5,74.5 233.5,93.5 
		238.763,93.5 	"/>
</g>
<g>
	<polygon fill="none" stroke="#000000" stroke-miterlimit="10" points="238.763,170.5 233.5,175.5 297.5,175.5 317.5,156.5 
		312.237,156.5 297.5,170.5 	"/>
	<polygon fill="none" stroke="#000000" stroke-miterlimit="10" points="297.5,165.5 238.763,165.5 233.5,170.5 238.763,170.5 
		297.5,170.5 312.237,156.5 317.5,151.5 312.237,151.5 	"/>
	<polygon fill="none" stroke="#000000" stroke-miterlimit="10" points="297.5,160.5 238.763,160.5 233.5,165.5 238.763,165.5 
		297.5,165.5 312.237,151.5 317.5,146.5 312.237,146.5 	"/>
	<polygon fill="none" stroke="#000000" stroke-miterlimit="10" points="312.237,141.5 297.5,155.5 238.763,155.5 233.5,160.5 
		238.763,160.5 297.5,160.5 312.237,146.5 317.5,141.5 	"/>
	<polygon fill="none" stroke="#000000" stroke-miterlimit="10" points="297.5,155.5 312.237,141.5 317.5,136.5 253.5,136.5 
		233.5,155.5 238.763,155.5 	"/>
</g>
<g>
	<polygon fill="none" stroke="#000000" stroke-miterlimit="10" points="238.763,231.5 233.5,236.5 297.5,236.5 317.5,217.5 
		312.237,217.5 297.5,231.5 	"/>
	<polygon fill="none" stroke="#000000" stroke-miterlimit="10" points="297.5,226.5 238.763,226.5 233.5,231.5 238.763,231.5 
		297.5,231.5 312.237,217.5 317.5,212.5 312.237,212.5 	"/>
	<polygon fill="none" stroke="#000000" stroke-miterlimit="10" points="297.5,221.5 238.763,221.5 233.5,226.5 238.763,226.5 
		297.5,226.5 312.237,212.5 317.5,207.5 312.237,207.5 	"/>
	<polygon fill="none" stroke="#000000" stroke-miterlimit="10" points="312.237,202.5 297.5,216.5 238.763,216.5 233.5,221.5 
		238.763,221.5 297.5,221.5 312.237,207.5 317.5,202.5 	"/>
	<polygon fill="none" stroke="#000000" stroke-miterlimit="10" points="297.5,216.5 312.237,202.5 317.5,197.5 253.5,197.5 
		233.5,216.5 238.763,216.5 	"/>
</g>
<g>
	<g>
		
			<line fill="none" stroke="#000000" stroke-width="2" stroke-linecap="round" stroke-miterlimit="10" x1="438" y1="25" x2="437" y2="25"/>
		
			<line fill="none" stroke="#000000" stroke-width="2" stroke-linecap="round" stroke-miterlimit="10" stroke-dasharray="2,4" x1="433" y1="25" x2="346" y2="25"/>
		<polyline fill="none" stroke="#000000" stroke-width="2" stroke-linecap="round" stroke-miterlimit="10" points="344,25 343,25 
			343,26 		"/>
		
			<line fill="none" stroke="#000000" stroke-width="2" stroke-linecap="round" stroke-miterlimit="10" stroke-dasharray="2,4" x1="343" y1="30" x2="343" y2="124"/>
		<polyline fill="none" stroke="#000000" stroke-width="2" stroke-linecap="round" stroke-miterlimit="10" points="343,125.5 
			343,126.5 342.097,126.929 		"/>
		
			<line fill="none" stroke="#000000" stroke-width="2" stroke-linecap="round" stroke-miterlimit="10" stroke-dasharray="1.831,3.6621" x1="338.789" y1="128.5" x2="325.557" y2="134.785"/>
		<polyline fill="none" stroke="#000000" stroke-width="2" stroke-linecap="round" stroke-miterlimit="10" points="323.903,135.571 
			323,136 323.885,136.465 		"/>
		
			<line fill="none" stroke="#000000" stroke-width="2" stroke-linecap="round" stroke-miterlimit="10" stroke-dasharray="1.8717,3.7434" x1="327.2" y1="138.205" x2="340.458" y2="145.165"/>
		<polyline fill="none" stroke="#000000" stroke-width="2" stroke-linecap="round" stroke-miterlimit="10" points="342.115,146.035 
			343,146.5 343,147.5 		"/>
		
			<line fill="none" stroke="#000000" stroke-width="2" stroke-linecap="round" stroke-miterlimit="10" stroke-dasharray="2,4" x1="343" y1="152" x2="343" y2="236"/>
		<polyline fill="none" stroke="#000000" stroke-width="2" stroke-linecap="round" stroke-miterlimit="10" points="343,238 343,239 
			344,239 		"/>
		
			<line fill="none" stroke="#000000" stroke-width="2" stroke-linecap="round" stroke-miterlimit="10" stroke-dasharray="2,4" x1="348" y1="239" x2="415" y2="239"/>
		
			<line fill="none" stroke="#000000" stroke-width="2" stroke-linecap="round" stroke-miterlimit="10" x1="417" y1="239" x2="418" y2="239"/>
		<g>
			<polygon points="431.204,16.82 429.84,18.285 437.063,24.998 429.84,31.713 431.204,33.178 440,24.998 			"/>
		</g>
		<g>
			<polygon points="411.204,247.18 409.84,245.715 417.063,239.002 409.84,232.287 411.204,230.822 420,239.002 			"/>
		</g>
	</g>
</g>
<rect x="643.5" y="25.5" fill="none" stroke="#000000" stroke-miterlimit="10" width="79" height="35"/>
<g>
	<g>
		<g>
			<line fill="none" stroke="#000000" stroke-miterlimit="10" x1="643" y1="30.5" x2="644" y2="30.5"/>
			<line fill="none" stroke="#000000" stroke-miterlimit="10" stroke-dasharray="2,1" x1="645" y1="30.5" x2="720" y2="30.5"/>
			<line fill="none" stroke="#000000" stroke-miterlimit="10" x1="721" y1="30.5" x2="722" y2="30.5"/>
		</g>
	</g>
	<g>
		<g>
			<line fill="none" stroke="#000000" stroke-miterlimit="10" x1="643" y1="35.5" x2="644" y2="35.5"/>
			<line fill="none" stroke="#000000" stroke-miterlimit="10" stroke-dasharray="2,1" x1="645" y1="35.5" x2="720" y2="35.5"/>
			<line fill="none" stroke="#000000" stroke-miterlimit="10" x1="721" y1="35.5" x2="722" y2="35.5"/>
		</g>
	</g>
	<g>
		<g>
			<line fill="none" stroke="#000000" stroke-miterlimit="10" x1="643" y1="40.5" x2="644" y2="40.5"/>
			<line fill="none" stroke="#000000" stroke-miterlimit="10" stroke-dasharray="2,1" x1="645" y1="40.5" x2="720" y2="40.5"/>
			<line fill="none" stroke="#000000" stroke-miterlimit="10" x1="721" y1="40.5" x2="722" y2="40.5"/>
		</g>
	</g>
	<g>
		<g>
			<line fill="none" stroke="#000000" stroke-miterlimit="10" x1="643" y1="45.5" x2="644" y2="45.5"/>
			<line fill="none" stroke="#000000" stroke-miterlimit="10" stroke-dasharray="2,1" x1="645" y1="45.5" x2="720" y2="45.5"/>
			<line fill="none" stroke="#000000" stroke-miterlimit="10" x1="721" y1="45.5" x2="722" y2="45.5"/>
		</g>
	</g>
	<g>
		<g>
			<line fill="none" stroke="#000000" stroke-miterlimit="10" x1="643" y1="50.5" x2="644" y2="50.5"/>
			<line fill="none" stroke="#000000" stroke-miterlimit="10" stroke-dasharray="2,1" x1="645" y1="50.5" x2="720" y2="50.5"/>
			<line fill="none" stroke="#000000" stroke-miterlimit="10" x1="721" y1="50.5" x2="722" y2="50.5"/>
		</g>
	</g>
	<g>
		<g>
			<line fill="none" stroke="#000000" stroke-miterlimit="10" x1="643" y1="55.5" x2="644" y2="55.5"/>
			<line fill="none" stroke="#000000" stroke-miterlimit="10" stroke-dasharray="2,1" x1="645" y1="55.5" x2="720" y2="55.5"/>
			<line fill="none" stroke="#000000" stroke-miterlimit="10" x1="721" y1="55.5" x2="722" y2="55.5"/>
		</g>
	</g>
</g>
<g>
	<g>
		<line fill="none" stroke="#000000" stroke-miterlimit="10" x1="661.5" y1="61" x2="661.5" y2="60"/>
		<line fill="none" stroke="#000000" stroke-miterlimit="10" stroke-dasharray="2,1" x1="661.5" y1="59" x2="661.5" y2="27"/>
		<line fill="none" stroke="#000000" stroke-miterlimit="10" x1="661.5" y1="26" x2="661.5" y2="25"/>
	</g>
</g>
<g>
	<g>
		<line fill="none" stroke="#000000" stroke-miterlimit="10" x1="678.5" y1="61" x2="678.5" y2="60"/>
		<line fill="none" stroke="#000000" stroke-miterlimit="10" stroke-dasharray="2,1" x1="678.5" y1="59" x2="678.5" y2="27"/>
		<line fill="none" stroke="#000000" stroke-miterlimit="10" x1="678.5" y1="26" x2="678.5" y2="25"/>
	</g>
</g>
<g>
	<g>
		<line fill="none" stroke="#000000" stroke-miterlimit="10" x1="695.5" y1="61" x2="695.5" y2="60"/>
		<line fill="none" stroke="#000000" stroke-miterlimit="10" stroke-dasharray="2,1" x1="695.5" y1="59" x2="695.5" y2="27"/>
		<line fill="none" stroke="#000000" stroke-miterlimit="10" x1="695.5" y1="26" x2="695.5" y2="25"/>
	</g>
</g>
<g>
	<g>
		<line fill="none" stroke="#000000" stroke-miterlimit="10" x1="710.5" y1="61" x2="710.5" y2="60"/>
		<line fill="none" stroke="#000000" stroke-miterlimit="10" stroke-dasharray="2,1" x1="710.5" y1="59" x2="710.5" y2="27"/>
		<line fill="none" stroke="#000000" stroke-miterlimit="10" x1="710.5" y1="26" x2="710.5" y2="25"/>
	</g>
</g>
<g>
	<line fill="none" stroke="#000000" stroke-width="2" stroke-miterlimit="10" x1="653" y1="84" x2="714" y2="84"/>
	<line fill="none" stroke="#000000" stroke-width="2" stroke-miterlimit="10" x1="653" y1="87" x2="714" y2="87"/>
	<line fill="none" stroke="#000000" stroke-width="2" stroke-miterlimit="10" x1="653" y1="90" x2="714" y2="90"/>
	<line fill="none" stroke="#000000" stroke-width="2" stroke-miterlimit="10" x1="653" y1="93" x2="714" y2="93"/>
</g>
<g>
	<rect x="649" y="171" fill="none" stroke="#000000" stroke-width="2" stroke-miterlimit="10" width="67" height="15"/>
	<line fill="none" stroke="#000000" stroke-width="2" stroke-miterlimit="10" x1="696" y1="171" x2="696" y2="186"/>
	<g>
		
			<line fill="none" stroke="#000000" stroke-width="2" stroke-linecap="square" stroke-miterlimit="10" x1="702.25" y1="176" x2="706.875" y2="180.625"/>
		
			<line fill="none" stroke="#000000" stroke-width="2" stroke-linecap="square" stroke-miterlimit="10" x1="706.875" y1="180.625" x2="711.5" y2="176"/>
	</g>
</g>
<g>
	<rect x="643.5" y="205.5" fill="none" stroke="#000000" stroke-miterlimit="10" width="79" height="35"/>
</g>
<rect x="643.5" y="115.5" fill="none" stroke="#000000" stroke-miterlimit="10" width="79" height="35"/>
<g>
	<g>
		<path fill="none" stroke="#000000" stroke-width="0" stroke-linecap="round" stroke-linejoin="round" d="M658,130"/>
		<path fill="none" stroke="#000000" stroke-width="0" stroke-linecap="round" stroke-linejoin="round" d="M667,130"/>
		<line fill="none" stroke="#000000" stroke-miterlimit="10" x1="674" y1="130.5" x2="667" y2="130.5"/>
		<path fill="none" stroke="#000000" stroke-width="0" stroke-linecap="round" stroke-linejoin="round" d="M658,130"/>
		<path fill="none" stroke="#000000" stroke-width="0" stroke-linecap="round" stroke-linejoin="round" d="M656,130"/>
		
			<line fill="none" stroke="#000000" stroke-width="0" stroke-linecap="round" stroke-linejoin="round" x1="656.5" y1="129.5" x2="656.5" y2="129.5"/>
		<line fill="none" stroke="#000000" stroke-miterlimit="10" x1="647" y1="130.5" x2="643" y2="130.5"/>
		<path fill="none" stroke="#000000" stroke-width="0" stroke-linecap="round" stroke-linejoin="round" d="M656,130"/>
		<path fill="none" stroke="#000000" stroke-width="0" stroke-linecap="round" stroke-linejoin="round" d="M647,130"/>
		<line fill="none" stroke="#000000" stroke-miterlimit="10" x1="655.5" y1="147" x2="655.5" y2="139"/>
		<path fill="none" stroke="#000000" stroke-width="0" stroke-linecap="round" stroke-linejoin="round" d="M656,119"/>
		<path fill="none" stroke="#000000" stroke-width="0" stroke-linecap="round" stroke-linejoin="round" d="M656,128"/>
		
			<line fill="none" stroke="#000000" stroke-width="0" stroke-linecap="round" stroke-linejoin="round" x1="656.5" y1="129.5" x2="656.5" y2="129.5"/>
		<path fill="none" stroke="#000000" stroke-width="0" stroke-linecap="round" stroke-linejoin="round" d="M656,139"/>
		<path fill="none" stroke="#000000" stroke-width="0" stroke-linecap="round" stroke-linejoin="round" d="M656,128"/>
		<line fill="none" stroke="#000000" stroke-miterlimit="10" x1="655.5" y1="116" x2="655.5" y2="119"/>
		<path fill="none" stroke="#000000" stroke-width="0" stroke-linecap="round" stroke-linejoin="round" d="M657.5,128.5"/>
		<path fill="none" stroke="#000000" stroke-width="0" stroke-linecap="round" stroke-linejoin="round" d="M656.5,127.5"/>
		<path fill="none" stroke="#000000" stroke-width="0" stroke-linecap="round" stroke-linejoin="round" d="M650.453,121.453"/>
		<path fill="none" stroke="#000000" stroke-width="0" stroke-linecap="round" stroke-linejoin="round" d="M664.547,135.548"/>
		<line fill="none" stroke="#000000" stroke-miterlimit="10" x1="645.126" y1="116.125" x2="650.453" y2="121.453"/>
		<line fill="none" stroke="#000000" stroke-miterlimit="10" x1="669.874" y1="140.875" x2="664.547" y2="135.548"/>
		<line fill="none" stroke="#000000" stroke-miterlimit="10" x1="649.93" y1="136.071" x2="645.126" y2="140.875"/>
		<path fill="none" stroke="#000000" stroke-width="0" stroke-linecap="round" stroke-linejoin="round" d="M656.5,129.5"/>
		
			<line fill="none" stroke="#000000" stroke-width="0" stroke-linecap="round" stroke-linejoin="round" x1="656.5" y1="129.5" x2="656.5" y2="129.5"/>
		<path fill="none" stroke="#000000" stroke-width="0" stroke-linecap="round" stroke-linejoin="round" d="M664.071,121.929"/>
		<path fill="none" stroke="#000000" stroke-width="0" stroke-linecap="round" stroke-linejoin="round" d="M649.93,136.071"/>
		<line fill="none" stroke="#000000" stroke-miterlimit="10" x1="669.874" y1="116.125" x2="664.071" y2="121.929"/>
	</g>
	<circle fill="none" stroke="#000000" stroke-miterlimit="10" cx="657" cy="129" r="6.75"/>
</g>
<path fill="none" stroke="#000000" stroke-miterlimit="10" d="M656.5,150.5c4.75-1,15.748-10.75,21.374-13.25
	s12.876,8.5,19.376,7.75s20-14,25.25-21.5"/>
<g>
	<g>
		<line fill="none" stroke="#000000" stroke-miterlimit="10" x1="652.5" y1="214" x2="652.5" y2="234"/>
		<g>
			<polygon points="651,216.135 652.5,214.438 654,216.135 654,214.695 652.5,213 651,214.695 			"/>
		</g>
	</g>
</g>
<g>
	<g>
		<line fill="none" stroke="#000000" stroke-miterlimit="10" x1="649" y1="230.5" x2="715" y2="230.5"/>
		<g>
			<polygon points="712.865,232 714.562,230.5 712.865,229 714.305,229 716,230.5 714.305,232 			"/>
		</g>
	</g>
</g>
<line fill="none" stroke="#000000" stroke-miterlimit="10" x1="693.5" y1="216" x2="693.5" y2="223"/>
<line fill="none" stroke="#000000" stroke-miterlimit="10" x1="697" y1="219.5" x2="690" y2="219.5"/>
<g>
	<g>
		
			<line fill="none" stroke="#000000" stroke-width="2" stroke-linecap="round" stroke-miterlimit="10" x1="26" y1="314" x2="26" y2="315"/>
		
			<line fill="none" stroke="#000000" stroke-width="2" stroke-linecap="round" stroke-miterlimit="10" stroke-dasharray="2,4" x1="26" y1="319" x2="26" y2="341"/>
		<polyline fill="none" stroke="#000000" stroke-width="2" stroke-linecap="round" stroke-miterlimit="10" points="26.5,343.5 
			26.5,344.5 27.5,344.5 		"/>
		
			<line fill="none" stroke="#000000" stroke-width="2" stroke-linecap="round" stroke-miterlimit="10" stroke-dasharray="2,4" x1="31" y1="345" x2="219" y2="345"/>
		<polyline fill="none" stroke="#000000" stroke-width="2" stroke-linecap="round" stroke-miterlimit="10" points="221,344.5 
			222,344.5 222.429,345.403 		"/>
		
			<line fill="none" stroke="#000000" stroke-width="2" stroke-linecap="round" stroke-miterlimit="10" stroke-dasharray="1.831,3.6621" x1="224" y1="348.711" x2="230.285" y2="361.942"/>
		<polyline fill="none" stroke="#000000" stroke-width="2" stroke-linecap="round" stroke-miterlimit="10" points="231.071,363.597 
			231.5,364.5 231.965,363.614 		"/>
		
			<line fill="none" stroke="#000000" stroke-width="2" stroke-linecap="round" stroke-miterlimit="10" stroke-dasharray="1.8717,3.7434" x1="233.705" y1="360.3" x2="240.665" y2="347.043"/>
		<polyline fill="none" stroke="#000000" stroke-width="2" stroke-linecap="round" stroke-miterlimit="10" points="241.535,345.386 
			242,344.5 243,344.5 		"/>
		
			<line fill="none" stroke="#000000" stroke-width="2" stroke-linecap="round" stroke-miterlimit="10" stroke-dasharray="2,4" x1="247" y1="345" x2="435" y2="345"/>
		<polyline fill="none" stroke="#000000" stroke-width="2" stroke-linecap="round" stroke-miterlimit="10" points="436.5,344.5 
			437.5,344.5 437.5,343.5 		"/>
		
			<line fill="none" stroke="#000000" stroke-width="2" stroke-linecap="round" stroke-miterlimit="10" stroke-dasharray="2,4" x1="437" y1="339" x2="437" y2="317"/>
		
			<line fill="none" stroke="#000000" stroke-width="2" stroke-linecap="round" stroke-miterlimit="10" x1="437" y1="315" x2="437" y2="314"/>
	</g>
</g>
<g>
	<line fill="none" stroke="#000000" stroke-width="2" stroke-miterlimit="10" x1="195" y1="426" x2="274" y2="426"/>
	<line fill="none" stroke="#000000" stroke-miterlimit="10" x1="194" y1="430.5" x2="273" y2="430.5"/>
	<line fill="none" stroke="#000000" stroke-miterlimit="10" x1="194" y1="434.5" x2="273" y2="434.5"/>
	<line fill="none" stroke="#000000" stroke-miterlimit="10" x1="194" y1="438.5" x2="273" y2="438.5"/>
	<line fill="none" stroke="#000000" stroke-width="2" stroke-miterlimit="10" x1="195" y1="442" x2="274" y2="442"/>
	<path fill="none" stroke="#000000" stroke-width="2" stroke-linecap="round" stroke-miterlimit="10" d="M194.667,442
		c-1.833-4.833-1.833-10.667,0-16"/>
</g>
<g>
	<line fill="none" stroke="#000000" stroke-width="2" stroke-miterlimit="10" x1="195" y1="400" x2="274" y2="400"/>
	<line fill="none" stroke="#000000" stroke-miterlimit="10" x1="194" y1="404.5" x2="273" y2="404.5"/>
	<line fill="none" stroke="#000000" stroke-miterlimit="10" x1="194" y1="408.5" x2="273" y2="408.5"/>
	<line fill="none" stroke="#000000" stroke-miterlimit="10" x1="194" y1="412.5" x2="273" y2="412.5"/>
	<line fill="none" stroke="#000000" stroke-width="2" stroke-miterlimit="10" x1="195" y1="416" x2="274" y2="416"/>
	<path fill="none" stroke="#000000" stroke-width="2" stroke-linecap="round" stroke-miterlimit="10" d="M194.667,416
		c-1.833-4.833-1.833-10.667,0-16"/>
</g>
<g>
	<line fill="none" stroke="#000000" stroke-width="2" stroke-miterlimit="10" x1="195" y1="452" x2="274" y2="452"/>
	<line fill="none" stroke="#000000" stroke-miterlimit="10" x1="194" y1="456.5" x2="273" y2="456.5"/>
	<line fill="none" stroke="#000000" stroke-miterlimit="10" x1="194" y1="460.5" x2="273" y2="460.5"/>
	<line fill="none" stroke="#000000" stroke-miterlimit="10" x1="194" y1="464.5" x2="273" y2="464.5"/>
	<line fill="none" stroke="#000000" stroke-width="2" stroke-miterlimit="10" x1="195" y1="468" x2="274" y2="468"/>
	<path fill="none" stroke="#000000" stroke-width="2" stroke-linecap="round" stroke-miterlimit="10" d="M194.667,468
		c-1.833-4.833-1.833-10.667,0-16"/>
</g>
<g>
	<line fill="none" stroke="#000000" stroke-width="2" stroke-miterlimit="10" x1="195" y1="478" x2="274" y2="478"/>
	<line fill="none" stroke="#000000" stroke-miterlimit="10" x1="194" y1="482.5" x2="273" y2="482.5"/>
	<line fill="none" stroke="#000000" stroke-miterlimit="10" x1="194" y1="486.5" x2="273" y2="486.5"/>
	<line fill="none" stroke="#000000" stroke-miterlimit="10" x1="194" y1="490.5" x2="273" y2="490.5"/>
	<line fill="none" stroke="#000000" stroke-width="2" stroke-miterlimit="10" x1="195" y1="494" x2="274" y2="494"/>
	<path fill="none" stroke="#000000" stroke-width="2" stroke-linecap="round" stroke-miterlimit="10" d="M194.667,494
		c-1.833-4.833-1.833-10.667,0-16"/>
</g>
<g>
	<polyline fill="none" stroke="#000000" stroke-miterlimit="10" points="449,87.5 437.5,87.5 437.5,179.5 511.5,179.5 511.5,118 	
		"/>
	<path fill="none" stroke="#000000" stroke-miterlimit="10" d="M506,114.5"/>
	<path fill="none" stroke="#000000" stroke-miterlimit="10" d="M449,114.5"/>
	<line fill="none" stroke="#000000" stroke-miterlimit="10" x1="449" y1="114.5" x2="445" y2="114.5"/>
	<line fill="none" stroke="#000000" stroke-miterlimit="10" x1="445" y1="116.5" x2="449" y2="116.5"/>
	<path fill="none" stroke="#000000" stroke-miterlimit="10" d="M449,116.5"/>
	<path fill="none" stroke="#000000" stroke-miterlimit="10" d="M506,116.5"/>
	<line fill="none" stroke="#000000" stroke-miterlimit="10" x1="449" y1="118.5" x2="445" y2="118.5"/>
	<path fill="none" stroke="#000000" stroke-miterlimit="10" d="M506,118.5"/>
	<path fill="none" stroke="#000000" stroke-miterlimit="10" d="M449,118.5"/>
	<line fill="none" stroke="#000000" stroke-miterlimit="10" x1="506" y1="120.5" x2="445" y2="120.5"/>
	<line fill="none" stroke="#000000" stroke-width="2" stroke-miterlimit="10" x1="449" y1="95" x2="445" y2="95"/>
	<path fill="none" stroke="#000000" stroke-miterlimit="10" d="M506,94.5"/>
	<line fill="none" stroke="#000000" stroke-width="2" stroke-miterlimit="10" x1="449" y1="98" x2="445" y2="98"/>
	<path fill="none" stroke="#000000" stroke-miterlimit="10" d="M449,97.5"/>
	<path fill="none" stroke="#000000" stroke-miterlimit="10" d="M506,97.5"/>
	<line fill="none" stroke="#000000" stroke-width="2" stroke-miterlimit="10" x1="449" y1="101" x2="445" y2="101"/>
	<path fill="none" stroke="#000000" stroke-miterlimit="10" d="M506,100.5"/>
	<path fill="none" stroke="#000000" stroke-miterlimit="10" d="M449,100.5"/>
	<path fill="none" stroke="#000000" stroke-miterlimit="10" d="M449,103.5"/>
	<path fill="none" stroke="#000000" stroke-miterlimit="10" d="M506,103.5"/>
	<line fill="none" stroke="#000000" stroke-width="2" stroke-miterlimit="10" x1="449" y1="104" x2="445" y2="104"/>
	<line fill="none" stroke="#000000" stroke-miterlimit="10" x1="506" y1="124.5" x2="445" y2="124.5"/>
	<line fill="none" stroke="#000000" stroke-miterlimit="10" x1="506" y1="126.5" x2="445" y2="126.5"/>
	<line fill="none" stroke="#000000" stroke-miterlimit="10" x1="506" y1="128.5" x2="445" y2="128.5"/>
	<line fill="none" stroke="#000000" stroke-miterlimit="10" x1="506" y1="130.5" x2="445" y2="130.5"/>
	<line fill="none" stroke="#000000" stroke-miterlimit="10" x1="506" y1="134.5" x2="445" y2="134.5"/>
	<line fill="none" stroke="#000000" stroke-miterlimit="10" x1="506" y1="136.5" x2="445" y2="136.5"/>
	<line fill="none" stroke="#000000" stroke-miterlimit="10" x1="506" y1="138.5" x2="445" y2="138.5"/>
	<line fill="none" stroke="#000000" stroke-miterlimit="10" x1="506" y1="140.5" x2="445" y2="140.5"/>
	<line fill="none" stroke="#000000" stroke-miterlimit="10" x1="445" y1="166.5" x2="506" y2="166.5"/>
	<line fill="none" stroke="#000000" stroke-miterlimit="10" x1="445" y1="168.5" x2="506" y2="168.5"/>
	<line fill="none" stroke="#000000" stroke-miterlimit="10" x1="445" y1="170.5" x2="506" y2="170.5"/>
	<line fill="none" stroke="#000000" stroke-miterlimit="10" x1="506" y1="172.5" x2="445" y2="172.5"/>
	<rect x="442.5" y="145.5" fill="none" stroke="#000000" stroke-miterlimit="10" width="29" height="16"/>
	<rect x="474.5" y="145.5" fill="none" stroke="#000000" stroke-miterlimit="10" width="29" height="16"/>
</g>
<g>
	<polyline fill="none" stroke="#000000" stroke-miterlimit="10" points="437,148.5 425.5,148.5 425.5,240.5 499.5,240.5 499.5,179 	
		"/>
	<path fill="none" stroke="#000000" stroke-miterlimit="10" d="M494,175.5"/>
	<path fill="none" stroke="#000000" stroke-miterlimit="10" d="M437,175.5"/>
	<line fill="none" stroke="#000000" stroke-miterlimit="10" x1="437" y1="175.5" x2="433" y2="175.5"/>
	<line fill="none" stroke="#000000" stroke-miterlimit="10" x1="433" y1="177.5" x2="437" y2="177.5"/>
	<path fill="none" stroke="#000000" stroke-miterlimit="10" d="M437,177.5"/>
	<path fill="none" stroke="#000000" stroke-miterlimit="10" d="M494,177.5"/>
	<line fill="none" stroke="#000000" stroke-miterlimit="10" x1="437" y1="179.5" x2="433" y2="179.5"/>
	<path fill="none" stroke="#000000" stroke-miterlimit="10" d="M494,179.5"/>
	<path fill="none" stroke="#000000" stroke-miterlimit="10" d="M437,179.5"/>
	<line fill="none" stroke="#000000" stroke-miterlimit="10" x1="494" y1="181.5" x2="433" y2="181.5"/>
	<line fill="none" stroke="#000000" stroke-width="2" stroke-miterlimit="10" x1="437" y1="156" x2="433" y2="156"/>
	<path fill="none" stroke="#000000" stroke-miterlimit="10" d="M494,155.5"/>
	<line fill="none" stroke="#000000" stroke-width="2" stroke-miterlimit="10" x1="437" y1="159" x2="433" y2="159"/>
	<path fill="none" stroke="#000000" stroke-miterlimit="10" d="M437,158.5"/>
	<path fill="none" stroke="#000000" stroke-miterlimit="10" d="M494,158.5"/>
	<line fill="none" stroke="#000000" stroke-width="2" stroke-miterlimit="10" x1="437" y1="162" x2="433" y2="162"/>
	<path fill="none" stroke="#000000" stroke-miterlimit="10" d="M494,161.5"/>
	<path fill="none" stroke="#000000" stroke-miterlimit="10" d="M437,161.5"/>
	<path fill="none" stroke="#000000" stroke-miterlimit="10" d="M437,164.5"/>
	<path fill="none" stroke="#000000" stroke-miterlimit="10" d="M494,164.5"/>
	<line fill="none" stroke="#000000" stroke-width="2" stroke-miterlimit="10" x1="437" y1="165" x2="433" y2="165"/>
	<line fill="none" stroke="#000000" stroke-miterlimit="10" x1="494" y1="185.5" x2="433" y2="185.5"/>
	<line fill="none" stroke="#000000" stroke-miterlimit="10" x1="494" y1="187.5" x2="433" y2="187.5"/>
	<line fill="none" stroke="#000000" stroke-miterlimit="10" x1="494" y1="189.5" x2="433" y2="189.5"/>
	<line fill="none" stroke="#000000" stroke-miterlimit="10" x1="494" y1="191.5" x2="433" y2="191.5"/>
	<line fill="none" stroke="#000000" stroke-miterlimit="10" x1="494" y1="195.5" x2="433" y2="195.5"/>
	<line fill="none" stroke="#000000" stroke-miterlimit="10" x1="494" y1="197.5" x2="433" y2="197.5"/>
	<line fill="none" stroke="#000000" stroke-miterlimit="10" x1="494" y1="199.5" x2="433" y2="199.5"/>
	<line fill="none" stroke="#000000" stroke-miterlimit="10" x1="494" y1="201.5" x2="433" y2="201.5"/>
	<line fill="none" stroke="#000000" stroke-miterlimit="10" x1="433" y1="227.5" x2="494" y2="227.5"/>
	<line fill="none" stroke="#000000" stroke-miterlimit="10" x1="433" y1="229.5" x2="494" y2="229.5"/>
	<line fill="none" stroke="#000000" stroke-miterlimit="10" x1="433" y1="231.5" x2="494" y2="231.5"/>
	<line fill="none" stroke="#000000" stroke-miterlimit="10" x1="494" y1="233.5" x2="433" y2="233.5"/>
	<rect x="430.5" y="206.5" fill="none" stroke="#000000" stroke-miterlimit="10" width="29" height="16"/>
	<rect x="462.5" y="206.5" fill="none" stroke="#000000" stroke-miterlimit="10" width="29" height="16"/>
</g>
<g>
</g>
<g>
</g>
<g>
</g>
<g>
</g>
<g>
</g>
<g>
</g>
<g>
</g>
<g>
</g>
<g>
</g>
<g>
</g>
<g>
</g>
<g>
</g>
<g>
</g>
<g>
</g>
<g>
</g>
<g>
</g>
<g>
</g>
</svg>
