<?xml version="1.0" encoding="utf-8"?>
<!-- Generator: Adobe Illustrator 16.0.0, SVG Export Plug-In . SVG Version: 6.00 Build 0)  -->
<!DOCTYPE svg PUBLIC "-//W3C//DTD SVG 1.1//EN" "http://www.w3.org/Graphics/SVG/1.1/DTD/svg11.dtd">
<svg version="1.1" id="Layer_1" xmlns="http://www.w3.org/2000/svg" xmlns:xlink="http://www.w3.org/1999/xlink" x="0px" y="0px"
	 width="37.273px" height="32.225px" viewBox="0 0 37.273 32.225" enable-background="new 0 0 37.273 32.225" xml:space="preserve">
<g>
	<polygon fill="none" points="13.538,10.234 13.017,8.304 11.532,6.796 9.44,6.283 2.852,6.283 2.852,14.902 9.885,14.902 
		9.885,14.901 11.99,13.876 12.952,12.357 	"/>
	<path fill="#0069B4" d="M34.558,0h-1.782l-2.371,0.955L28.38,3.603l-1.92,8.93h-4.235v2.894h3.561l-2.88,11.886l-1.182,1.676
		l-1.13,0.463l-0.841-0.029l-1.082-0.239l-0.776-0.531l-0.482-0.519l-0.477-0.576L12.117,16.93l1.789-0.891l1.652-2.508l0.924-3.296
		L15.488,6.83l-2.535-2.579L9.749,3.463H0v24.094h2.852v-9.828h6.483l4.571,9.828l0.461,1.213l1.243,1.494l1.531,1.179v0.002
		l1.155,0.482l1.601,0.298h1.22l2.338-0.956l1.224-1.245l0.802-1.401l3.134-13.195h4.599v-2.894h-3.84l1.609-7.621l1.182-1.561
		l1.117-0.454h0.902l2.337,0.665l0.752-2.811L34.558,0z M9.885,14.901L9.885,14.901l-7.033,0.001V6.283H9.44l2.092,0.513
		l1.485,1.509l0.521,1.93l-0.586,2.123l-0.962,1.519L9.885,14.901z"/>
</g>
</svg>
