<?xml version="1.0" encoding="utf-8"?>
<!-- Generator: Adobe Illustrator 16.0.0, SVG Export Plug-In . SVG Version: 6.00 Build 0)  -->
<!DOCTYPE svg PUBLIC "-//W3C//DTD SVG 1.1//EN" "http://www.w3.org/Graphics/SVG/1.1/DTD/svg11.dtd">
<svg version="1.1" id="Layer_1" xmlns="http://www.w3.org/2000/svg" xmlns:xlink="http://www.w3.org/1999/xlink" x="0px" y="0px"
	 width="68.615px" height="17.009px" viewBox="0 15.216 68.615 17.009" enable-background="new 0 15.216 68.615 17.009"
	 xml:space="preserve">
<g>
	<polygon fill="#FFFFFF" points="63.392,18.327 63.392,15.759 62.524,15.759 62.524,15.418 64.66,15.418 64.66,15.759 
		63.774,15.759 63.774,18.327 	"/>
	<polygon fill="#FFFFFF" points="66.107,15.418 67.191,17.788 68.262,15.418 68.615,15.418 68.615,18.327 68.239,18.327 
		68.239,16.373 67.394,18.25 67,18.25 66.131,16.356 66.131,18.327 65.751,18.327 65.751,15.418 	"/>
	<path fill="#FFFFFF" d="M58.901,17.459l1.339,1.361l0.526,1.798l-0.487,1.739l-0.875,1.324l-0.942,0.471l2.542,5.608h-1.6
		l-2.409-5.188h-3.423v5.188h-1.506V17.044h5.146L58.901,17.459z M57.284,23.08l1.109-0.54l0.508-0.803l0.312-1.12l-0.275-1.019
		l-0.782-0.797l-1.105-0.271h-3.479v4.55H57.284L57.284,23.08z"/>
	<path fill="#FFFFFF" d="M6.837,17.459l1.338,1.361l0.524,1.798l-0.487,1.739l-0.873,1.324l-0.944,0.471l2.543,5.608h-1.6
		l-2.412-5.188H1.505v5.188H0V17.044h5.146L6.837,17.459z M5.217,23.08l1.111-0.54l0.508-0.803l0.309-1.12l-0.275-1.019
		l-0.784-0.797l-1.104-0.27H1.505v4.549L5.217,23.08L5.217,23.08z"/>
	<path fill="#FFFFFF" d="M11.795,22.366l0.887-1.341l1.74-0.889h2.066l1.723,0.889l0.907,1.341l0.401,1.635v1.961l-0.401,1.611
		l-0.907,1.347l-1.724,0.863h-2.066l-1.74-0.864l-0.887-1.347l-0.364-1.634V24L11.795,22.366z M17.726,22.967l-0.528-0.794
		l-1.068-0.545h-1.36l-1.07,0.545l-0.528,0.794l-0.235,1.181v1.612l0.235,1.217l0.528,0.801l1.07,0.521h1.36l1.068-0.521
		l0.528-0.801l0.288-1.217v-1.575L17.726,22.967z"/>
	<path fill="#FFFFFF" d="M41.114,22.364l0.887-1.342l1.74-0.888h2.071l1.717,0.888l0.911,1.342l0.4,1.634v1.96l-0.4,1.61
		l-0.911,1.348l-1.717,0.863h-2.071l-1.74-0.863l-0.887-1.348l-0.364-1.631v-1.939L41.114,22.364z M47.039,22.962l-0.523-0.796
		l-1.068-0.544h-1.355l-1.075,0.544l-0.524,0.796l-0.237,1.182v1.61l0.237,1.216l0.524,0.803l1.075,0.522h1.355l1.067-0.522
		l0.523-0.803l0.295-1.216v-1.575L47.039,22.962z"/>
	<polygon fill="#FFFFFF" points="30.468,32.068 31.313,32.224 31.957,32.224 33.19,31.719 33.836,31.062 34.26,30.323 
		35.914,23.359 38.341,23.359 38.341,21.831 36.314,21.831 37.164,17.809 37.788,16.985 38.377,16.744 38.854,16.744 40.087,17.096 
		40.484,15.613 39.051,15.216 38.11,15.216 36.858,15.72 35.79,17.117 34.776,21.831 32.542,21.831 32.542,23.359 34.421,23.359 
		32.901,29.631 32.277,30.516 31.681,30.761 31.237,30.745 30.666,30.618 30.256,30.338 30.001,30.065 26.511,24.315 29.685,21.198 
		28.667,20.114 24.204,24.463 24.204,16.193 22.702,16.193 22.702,29.76 24.204,29.76 24.204,26.53 25.419,25.369 28.394,30.401 
		29.05,31.189 29.858,31.811 29.858,31.812 	"/>
</g>
</svg>
