<?xml version="1.0" encoding="utf-8"?>
<!-- Generator: Adobe Illustrator 16.0.0, SVG Export Plug-In . SVG Version: 6.00 Build 0)  -->
<!DOCTYPE svg PUBLIC "-//W3C//DTD SVG 1.1//EN" "http://www.w3.org/Graphics/SVG/1.1/DTD/svg11.dtd">
<svg version="1.1" id="Layer_1" xmlns="http://www.w3.org/2000/svg" xmlns:xlink="http://www.w3.org/1999/xlink" x="0px" y="0px"
	 width="130px" height="32.225px" viewBox="0 0 130 32.225" enable-background="new 0 0 130 32.225" xml:space="preserve">
<g>
	<polygon points="120.104,5.896 120.104,1.029 118.46,1.029 118.46,0.382 122.507,0.382 122.507,1.029 120.828,1.029 120.828,5.896 
			"/>
	<polygon points="125.25,0.382 127.303,4.874 129.331,0.382 130,0.382 130,5.895 129.288,5.895 129.288,2.193 127.686,5.748 
		126.939,5.748 125.294,2.16 125.294,5.895 124.574,5.895 124.574,0.382 	"/>
	<path fill="#E84E0F" d="M111.596,4.251l2.536,2.579l0.996,3.406l-0.922,3.296l-1.659,2.508l-1.785,0.891l4.817,10.626h-3.032
		l-4.564-9.828h-6.485v9.828h-2.853V3.463h9.75L111.596,4.251z M108.531,14.901l2.102-1.025l0.963-1.519l0.59-2.123l-0.521-1.93
		l-1.482-1.509l-2.094-0.515h-6.59V14.9L108.531,14.901L108.531,14.901z"/>
	<path fill="#0069B4" d="M12.953,4.251l2.535,2.579l0.994,3.406l-0.924,3.296l-1.652,2.508l-1.789,0.891l4.819,10.626h-3.03
		l-4.571-9.828H2.852v9.828H0V3.463h9.749L12.953,4.251z M9.885,14.901l2.105-1.025l0.962-1.519l0.586-2.123l-0.521-1.93
		l-1.485-1.509L9.44,6.283H2.852v8.619L9.885,14.901L9.885,14.901z"/>
	<path fill="#E84E0F" d="M22.347,13.548l1.681-2.541l3.297-1.683h3.915l3.265,1.683l1.719,2.541l0.759,3.098v3.715l-0.759,3.052
		l-1.719,2.552L31.239,27.6h-3.915l-3.297-1.637l-1.681-2.552l-0.689-3.094v-3.673L22.347,13.548z M33.583,14.686l-1-1.505
		l-2.023-1.032h-2.577l-2.028,1.032l-1.001,1.505l-0.446,2.237v3.054l0.446,2.306l1.001,1.516l2.028,0.989h2.577l2.023-0.989
		l1-1.516l0.545-2.306v-2.985L33.583,14.686z"/>
	<path fill="#0069B4" d="M77.896,13.541l1.681-2.542l3.296-1.68h3.925l3.253,1.68l1.725,2.542l0.758,3.096v3.715l-0.758,3.051
		l-1.725,2.552l-3.253,1.635h-3.925l-3.296-1.635l-1.681-2.552l-0.69-3.091v-3.675L77.896,13.541z M89.122,14.677l-0.991-1.508
		l-2.023-1.032H83.54l-2.037,1.032l-0.993,1.508l-0.449,2.237v3.052l0.449,2.304l0.993,1.521l2.037,0.989h2.567l2.023-0.989
		l0.991-1.521l0.558-2.304v-2.984L89.122,14.677z"/>
	<polygon fill="#3AAA35" points="57.725,31.927 59.326,32.224 60.546,32.224 62.884,31.268 64.108,30.023 64.91,28.622 
		68.044,15.427 72.643,15.427 72.643,12.533 68.803,12.533 70.412,4.912 71.594,3.351 72.711,2.897 73.613,2.897 75.95,3.562 
		76.702,0.752 73.986,0 72.204,0 69.833,0.955 67.809,3.603 65.889,12.533 61.654,12.533 61.654,15.427 65.215,15.427 
		62.335,27.312 61.153,28.988 60.023,29.451 59.182,29.422 58.1,29.182 57.324,28.651 56.842,28.133 50.228,17.239 56.242,11.335 
		54.313,9.279 45.858,17.52 45.858,1.852 43.012,1.852 43.012,27.555 45.858,27.555 45.858,21.435 48.16,19.237 53.796,28.769 
		55.039,30.263 56.57,31.442 56.57,31.444 	"/>
</g>
</svg>
