<?xml version="1.0" encoding="utf-8"?>
<!-- Generator: Adobe Illustrator 16.0.0, SVG Export Plug-In . SVG Version: 6.00 Build 0)  -->
<!DOCTYPE svg PUBLIC "-//W3C//DTD SVG 1.1//EN" "http://www.w3.org/Graphics/SVG/1.1/DTD/svg11.dtd">
<svg version="1.1" id="Layer_1" xmlns="http://www.w3.org/2000/svg" xmlns:xlink="http://www.w3.org/1999/xlink" x="0px" y="0px"
	 width="19.673px" height="17.008px" viewBox="0 15.217 19.673 17.008" enable-background="new 0 15.217 19.673 17.008"
	 xml:space="preserve">
<g>
	<path fill="#FFFFFF" d="M18.24,15.217h-0.94l-1.251,0.504l-1.069,1.397l-1.013,4.714h-2.234v1.527h1.879l-1.52,6.273l-0.624,0.884
		l-0.596,0.246l-0.445-0.016l-0.571-0.126L9.446,30.34l-0.255-0.273l-0.251-0.304l-2.544-5.61l0.944-0.471l0.872-1.324l0.487-1.739
		l-0.524-1.797L6.836,17.46l-1.691-0.416H0v12.717h1.506v-5.187h3.421l2.413,5.187l0.243,0.641l0.656,0.788l0.808,0.622v0.001
		l0.608,0.255l0.846,0.157h0.644l1.234-0.505l0.647-0.657l0.423-0.738l1.654-6.964h2.427v-1.527h-2.026l0.85-4.022l0.624-0.825
		l0.589-0.239h0.477l1.233,0.351l0.396-1.483L18.24,15.217z M5.217,23.081l-3.711,0.001v-4.549h3.477l1.104,0.271L6.87,19.6
		l0.275,1.019l-0.31,1.121l-0.507,0.802L5.217,23.081z"/>
</g>
</svg>
