<?xml version="1.0" encoding="utf-8"?>
<!-- Generator: Adobe Illustrator 16.0.0, SVG Export Plug-In . SVG Version: 6.00 Build 0)  -->
<!DOCTYPE svg PUBLIC "-//W3C//DTD SVG 1.1//EN" "http://www.w3.org/Graphics/SVG/1.1/DTD/svg11.dtd">
<svg version="1.1" id="Layer_1" xmlns="http://www.w3.org/2000/svg" xmlns:xlink="http://www.w3.org/1999/xlink" x="0px" y="0px"
	 width="19.672px" height="17.008px" viewBox="0 0 19.672 17.008" enable-background="new 0 0 19.672 17.008" xml:space="preserve">
<g>
	<path fill="#FFFFFF" d="M14.323,3.965H13.82l-0.667,0.269l-0.57,0.746l-0.541,2.516h-1.192v0.815h1.003l-0.812,3.348l-0.333,0.472
		l-0.318,0.131l-0.238-0.008l-0.304-0.067l-0.219-0.149l-0.136-0.146l-0.134-0.161L8,8.734l0.504-0.251L8.97,7.776l0.26-0.928
		L8.95,5.889L8.235,5.162L7.333,4.94H4.586v6.789H5.39V8.959h1.826l1.288,2.769l0.129,0.342l0.35,0.42l0.432,0.333l0,0L9.74,12.96
		l0.451,0.083h0.344l0.659-0.269l0.345-0.352l0.227-0.394l0.883-3.717h1.295V7.497h-1.081l0.453-2.147l0.334-0.441l0.313-0.127
		h0.255l0.659,0.188l0.21-0.792L14.323,3.965z M7.371,8.163l-1.981,0V5.735h1.856L7.835,5.88l0.418,0.424L8.4,6.849L8.235,7.447
		L7.964,7.875L7.371,8.163z"/>
</g>
</svg>
