<?xml version="1.0" standalone="no"?>
<!DOCTYPE svg PUBLIC "-//W3C//DTD SVG 20010904//EN"
 "http://www.w3.org/TR/2001/REC-SVG-20010904/DTD/svg10.dtd">
<svg version="1.0" xmlns="http://www.w3.org/2000/svg"
 width="80.000000pt" height="80.000000pt" viewBox="0 0 80.000000 80.000000"
 preserveAspectRatio="xMidYMid meet">
<metadata>
Created by potrace 1.11, written by Peter Selinger 2001-2013
</metadata>
<g transform="translate(0.000000,80.000000) scale(0.100000,-0.100000)"
fill="#000000" stroke="none">
<path d="M50 400 l0 -350 350 0 350 0 0 350 0 350 -350 0 -350 0 0 -350z m411
239 c111 -37 141 -165 59 -249 -17 -17 -30 -33 -30 -36 0 -7 53 -125 75 -167
21 -40 19 -47 -14 -47 -25 0 -32 7 -51 48 -11 26 -29 65 -39 87 -11 22 -21 48
-25 58 -4 14 -18 17 -76 17 l-70 0 0 -105 0 -105 -30 0 -30 0 0 248 c0 137 3
252 7 255 11 11 188 8 224 -4z"/>
<path d="M290 495 l0 -85 75 0 c41 0 85 5 98 11 47 21 62 96 28 137 -17 20
-28 22 -110 22 l-91 0 0 -85z"/>
</g>
</svg>
